<svg width="400" height="300" viewBox="0 0 400 300" fill="none" xmlns="http://www.w3.org/2000/svg">
<ellipse cx="200" cy="265.5" rx="179" ry="7" fill="#B0B7C3" fill-opacity="0.2"/>
<circle cx="116" cy="126.5" r="15" stroke="#B0B7C3" stroke-opacity="0.3" stroke-width="2"/>
<circle cx="53" cy="80.5" r="3" stroke="#B0B7C3" stroke-opacity="0.3" stroke-width="2"/>
<circle cx="81" cy="241.5" r="3" stroke="#B0B7C3" stroke-opacity="0.3" stroke-width="2"/>
<circle cx="331" cy="225.5" r="7" stroke="#B0B7C3" stroke-opacity="0.3" stroke-width="2"/>
<circle cx="353" cy="61.5" r="4" stroke="#B0B7C3" stroke-opacity="0.3" stroke-width="2"/>
<path fill-rule="evenodd" clip-rule="evenodd" d="M230.073 96.7605C245.448 102.15 262.281 94.0554 267.671 78.6803C273.06 63.3051 264.965 46.472 249.59 41.0823C234.215 35.6927 217.382 43.7875 211.992 59.1626C206.603 74.5377 214.698 91.3709 230.073 96.7605ZM229.08 99.5916C246.019 105.529 264.564 96.6114 270.502 79.6727C276.439 62.734 267.521 44.189 250.583 38.2512C233.644 32.3135 215.099 41.2315 209.161 58.1702C203.224 75.1089 212.142 93.6539 229.08 99.5916Z" fill="#B0B7C3"/>
<path fill-rule="evenodd" clip-rule="evenodd" d="M230.734 94.873C245.067 99.8973 260.759 92.3513 265.783 78.0186C269.048 68.7063 267.006 58.8204 261.244 51.6592C260.836 52.6244 259.742 53.1183 258.74 52.7669C257.698 52.4015 257.149 51.2603 257.514 50.2179C257.728 49.608 258.208 49.1671 258.777 48.9794C256.042 46.3773 252.723 44.2997 248.929 42.9696C234.596 37.9454 218.904 45.4914 213.88 59.8241C208.856 74.1569 216.402 89.8488 230.734 94.873Z" fill="#B0B7C3" fill-opacity="0.7"/>
<path d="M307.51 110.13C304.587 118.469 269.261 113.677 228.609 99.4261C187.956 85.1755 157.37 66.863 160.293 58.524C163.216 50.1849 198.542 54.9772 239.194 69.2278C279.847 83.4784 310.433 101.791 307.51 110.13Z" fill="#F9FAFC"/>
<path fill-rule="evenodd" clip-rule="evenodd" d="M303.644 109.947C304.539 109.515 304.665 109.177 304.679 109.138C304.693 109.098 304.805 108.755 304.376 107.86C303.942 106.954 303.08 105.772 301.657 104.339C298.821 101.484 294.245 98.1175 288.152 94.4696C276.01 87.1998 258.397 79.138 238.202 72.0589C218.007 64.9797 199.215 60.28 185.192 58.3775C178.155 57.4229 172.478 57.1955 168.48 57.6548C166.474 57.8853 165.064 58.2707 164.159 58.7072C163.264 59.1388 163.138 59.4771 163.124 59.5164C163.11 59.5557 162.998 59.8988 163.427 60.7944C163.861 61.7003 164.722 62.8821 166.146 64.3147C168.982 67.1697 173.558 70.5365 179.651 74.1843C191.793 81.4541 209.406 89.5159 229.601 96.595C249.796 103.674 268.588 108.374 282.611 110.276C289.648 111.231 295.325 111.458 299.323 110.999C301.329 110.769 302.739 110.383 303.644 109.947ZM228.609 99.4261C269.261 113.677 304.587 118.469 307.51 110.13C310.433 101.791 279.847 83.4784 239.194 69.2278C198.542 54.9772 163.216 50.1849 160.293 58.524C157.37 66.863 187.956 85.1755 228.609 99.4261Z" fill="#B0B7C3"/>
<ellipse rx="60.1678" ry="12.6959" transform="matrix(0.943698 0.330808 0.330808 -0.943698 232.885 87.3851)" fill="#B0B7C3" fill-opacity="0.7"/>
<ellipse cx="232.554" cy="89.6828" rx="42.6652" ry="9.5519" transform="rotate(19.3178 232.554 89.6828)" fill="#B0B7C3" fill-opacity="0.7"/>
<path fill-rule="evenodd" clip-rule="evenodd" d="M171.968 229.664L171.169 235.611L165.507 234.851L165.507 234.853L165.495 234.851L164.172 244.982L156.708 243.979L158.07 233.852L158.07 233.852L158.07 233.851L138.649 231.243L139.004 226.719L145 219.5L153 219.5L146.974 226.307L158.866 227.905L158.866 227.904L158.87 227.905L160 219.5L167.5 219.5L166.272 228.899L171.968 229.664ZM207.724 224.031L206.734 231.402C206.259 234.933 205.504 237.9 204.466 240.304C203.452 242.691 202.19 244.571 200.681 245.944C199.173 247.318 197.461 248.245 195.547 248.723C193.654 249.204 191.592 249.295 189.362 248.996C187.586 248.757 185.965 248.308 184.498 247.649C183.052 246.992 181.785 246.097 180.697 244.963C179.609 243.829 178.734 242.439 178.072 240.795C177.433 239.133 177.021 237.196 176.834 234.985C176.669 232.776 176.776 230.258 177.156 227.429L178.5 219.5L186 219.5L184.509 229.489C184.265 231.306 184.154 232.92 184.174 234.331C184.195 235.742 184.345 236.971 184.625 238.018C184.908 239.043 185.295 239.915 185.787 240.633C186.303 241.333 186.923 241.879 187.648 242.27C188.394 242.665 189.231 242.924 190.161 243.049C191.338 243.207 192.411 243.12 193.38 242.788C194.35 242.456 195.211 241.836 195.963 240.928C196.719 239.999 197.36 238.751 197.886 237.182C198.412 235.613 198.826 233.703 199.128 231.452L200.736 219.5H208C208 219.787 208.004 220.026 208.007 220.246V220.246V220.246V220.246V220.246V220.247C208.022 221.174 208.031 221.744 207.724 224.031ZM243.272 245.296L244.071 239.35L238.547 238.608L238.548 238.601L238.435 238.586L241 219.5H234L231.246 237.627L219.076 235.992L232.666 219.5H225.5L211.107 236.404L210.751 240.928L230.345 243.56L228.81 253.664L236.274 254.667L237.635 244.543L237.784 244.564L237.785 244.559L243.272 245.296ZM261 219.5V219.561L256.983 243.922L250.603 243.065L253 219.561V219.5H261ZM248.301 252.688C248.454 251.552 248.953 250.652 249.799 249.988C250.668 249.306 251.774 249.055 253.116 249.236C254.438 249.413 255.428 249.945 256.086 250.833C256.748 251.699 257.002 252.7 256.849 253.836C256.702 254.93 256.194 255.819 255.325 256.501C254.458 257.162 253.364 257.404 252.043 257.226C250.701 257.046 249.699 256.523 249.038 255.656C248.4 254.772 248.154 253.782 248.301 252.688Z" fill="#B0B7C3"/>
<path fill-rule="evenodd" clip-rule="evenodd" d="M260.846 219.5H265.43C266.009 219.5 266.467 219.01 266.428 218.433L258.519 100.787C258.507 100.599 258.443 100.421 258.331 100.27C247.8 86.0011 222.74 77.1457 204.371 81.9019C204.131 81.964 203.926 82.1154 203.791 82.3237L116.492 217.959C116.063 218.624 116.541 219.5 117.333 219.5H145.104L139.005 226.718L138.649 231.243L158.068 233.851L156.708 243.979L164.172 244.982L165.533 234.854L171.17 235.611L171.968 229.664L166.331 228.907L167.595 219.5H178.224C178.197 219.684 178.171 219.87 178.146 220.058L177.156 227.429C176.776 230.258 176.669 232.776 176.835 234.985C177.021 237.196 177.434 239.132 178.072 240.795C178.734 242.439 179.609 243.828 180.697 244.963C181.785 246.097 183.052 246.992 184.498 247.649C185.965 248.308 187.586 248.757 189.362 248.996C191.592 249.295 193.654 249.204 195.547 248.723C197.461 248.244 199.173 247.318 200.682 245.944C202.19 244.57 203.452 242.69 204.466 240.304C205.504 237.9 206.26 234.933 206.734 231.402L207.724 224.031C207.941 222.416 208.068 220.906 208.107 219.5H225.39L211.107 236.404L210.752 240.928L230.171 243.536L228.81 253.664L236.275 254.667L237.635 244.539L243.272 245.296L244.071 239.349L238.434 238.592L240.998 219.5H253.186L250.603 243.065L256.983 243.922L260.846 219.5ZM260.846 219.5L261.999 212.213L254.101 211.153L253.186 219.5H260.846ZM233.4 219.5H240.998L242.332 209.572L240.629 209.343L234.868 208.569L234.651 208.54L225.39 219.5H232.714L232.666 219.561L219.076 235.992L230.97 237.59L233.4 219.5ZM233.4 219.5H232.714L233.542 218.437L233.4 219.5ZM200.663 219.5H208.107C208.135 218.443 208.114 217.445 208.041 216.506C207.875 214.297 207.46 212.381 206.795 210.758C206.154 209.116 205.288 207.738 204.197 206.625C203.127 205.514 201.858 204.639 200.388 204.001C198.942 203.344 197.32 202.895 195.524 202.654C193.294 202.354 191.223 202.433 189.312 202.891C187.421 203.352 185.722 204.269 184.213 205.643C182.707 206.996 181.438 208.854 180.406 211.217C179.431 213.436 178.703 216.197 178.224 219.5H185.853C185.832 219.648 185.811 219.798 185.791 219.949L184.51 229.489C184.266 231.306 184.154 232.92 184.174 234.331C184.195 235.742 184.345 236.971 184.625 238.017C184.908 239.043 185.295 239.915 185.787 240.633C186.303 241.333 186.923 241.879 187.648 242.27C188.394 242.665 189.232 242.924 190.161 243.049C191.338 243.207 192.411 243.12 193.381 242.788C194.35 242.456 195.211 241.836 195.964 240.928C196.719 239.999 197.36 238.751 197.886 237.182C198.412 235.613 198.826 233.703 199.128 231.452L200.41 221.913C200.524 221.063 200.608 220.259 200.663 219.5ZM200.663 219.5H185.853C186.149 217.446 186.54 215.707 187.025 214.282C187.569 212.736 188.216 211.52 188.966 210.633C189.716 209.746 190.574 209.146 191.541 208.835C192.51 208.502 193.573 208.414 194.729 208.569C195.679 208.697 196.517 208.956 197.242 209.348C197.97 209.719 198.591 210.255 199.107 210.954C199.625 211.634 200.015 212.485 200.277 213.508C200.563 214.513 200.716 215.722 200.736 217.133C200.749 217.865 200.724 218.655 200.663 219.5ZM159.996 219.5H167.595L170.23 199.887L168.526 199.658L162.765 198.884L162.549 198.855L145.104 219.5H152.604L146.974 226.307L158.867 227.905L159.996 219.5ZM159.996 219.5H152.604L160.564 209.876L161.44 208.752L159.996 219.5ZM249.799 249.988C248.953 250.652 248.454 251.552 248.301 252.688C248.154 253.782 248.4 254.771 249.038 255.656C249.699 256.522 250.701 257.046 252.043 257.226C253.365 257.404 254.459 257.162 255.325 256.5C256.194 255.818 256.703 254.93 256.85 253.836C257.002 252.7 256.748 251.699 256.086 250.833C255.428 249.945 254.438 249.413 253.116 249.235C251.774 249.055 250.669 249.306 249.799 249.988Z" fill="#B0B7C3" fill-opacity="0.3"/>
<path d="M257.16 108.015L201.662 87.9209C201.064 87.7042 200.818 86.9911 201.155 86.4512L203.792 82.2255C203.926 82.0112 204.134 81.8553 204.378 81.792C222.735 77.0436 247.767 85.883 258.31 100.132C258.435 100.302 258.5 100.506 258.5 100.716V107.074C258.5 107.768 257.812 108.251 257.16 108.015Z" fill="#B0B7C3"/>
</svg>
